<?xml version="1.0" encoding="utf-8"?>
<!-- Generator: Adobe Illustrator 17.1.0, SVG Export Plug-In . SVG Version: 6.00 Build 0)  -->
<!DOCTYPE svg PUBLIC "-//W3C//DTD SVG 1.1//EN" "http://www.w3.org/Graphics/SVG/1.1/DTD/svg11.dtd">
<svg version="1.1" id="wireframe" xmlns="http://www.w3.org/2000/svg" xmlns:xlink="http://www.w3.org/1999/xlink" x="0px" y="0px"
	 viewBox="0 0 1024 1024" enable-background="new 0 0 1024 1024" xml:space="preserve">
<g id="wireframe-wireframe">
	<rect fill="#ED7161" width="1024" height="1024"/>
	<g id="wireframe-wireframe_1_">
		<g>
			<path fill="#FFFFFF" d="M375.1577,375.168H312v-63.167h63.1577V375.168L375.1577,375.168z M333.0527,354.1162h21.0523v-21.0635
				h-21.0523V354.1162L333.0527,354.1162z"/>
		</g>
		<g>
			<path fill="#FFFFFF" d="M712,375.168h-63.1582v-63.167H712V375.168L712,375.168z M669.8945,354.1162h21.0528v-21.0635h-21.0528
				V354.1162L669.8945,354.1162z"/>
		</g>
		<g>
			<path fill="#FFFFFF" d="M375.1577,711.999H312V648.832h63.1577V711.999L375.1577,711.999z M333.0527,690.9473h21.0523v-21.0635
				h-21.0523V690.9473L333.0527,690.9473z"/>
		</g>
		<g>
			<path fill="#FFFFFF" d="M712,711.999h-63.1582V648.832H712V711.999L712,711.999z M669.8945,690.9473h21.0528v-21.0635h-21.0528
				V690.9473L669.8945,690.9473z"/>
		</g>
		<g>
			<g>
				<polygon fill="#FFFFFF" points="414.21,354.1045 389.7603,354.1045 389.7603,333.0527 414.21,333.0527 414.21,354.1045 				"/>
			</g>
			<g>
				<polygon fill="#FFFFFF" points="458.2173,354.1045 433.7666,354.1045 433.7666,333.0527 458.2173,333.0527 458.2173,354.1045 
									"/>
			</g>
			<g>
				<polygon fill="#FFFFFF" points="502.2236,354.1045 477.7793,354.1045 477.7793,333.0527 502.2236,333.0527 502.2236,354.1045 
									"/>
			</g>
			<g>
				<polygon fill="#FFFFFF" points="546.2256,354.1045 521.7808,354.1045 521.7808,333.0527 546.2256,333.0527 546.2256,354.1045 
									"/>
			</g>
			<g>
				<polygon fill="#FFFFFF" points="590.2329,354.1045 565.7876,354.1045 565.7876,333.0527 590.2329,333.0527 590.2329,354.1045 
									"/>
			</g>
			<g>
				<polygon fill="#FFFFFF" points="634.2393,354.1045 609.7896,354.1045 609.7896,333.0527 634.2393,333.0527 634.2393,354.1045 
									"/>
			</g>
		</g>
		<g>
			<g>
				<polygon fill="#FFFFFF" points="414.21,690.9473 389.7603,690.9473 389.7603,669.8955 414.21,669.8955 414.21,690.9473 				"/>
			</g>
			<g>
				<polygon fill="#FFFFFF" points="458.2173,690.9473 433.7666,690.9473 433.7666,669.8955 458.2173,669.8955 458.2173,690.9473 
									"/>
			</g>
			<g>
				<polygon fill="#FFFFFF" points="502.2236,690.9473 477.7793,690.9473 477.7793,669.8955 502.2236,669.8955 502.2236,690.9473 
									"/>
			</g>
			<g>
				<polygon fill="#FFFFFF" points="546.2256,690.9473 521.7808,690.9473 521.7808,669.8955 546.2256,669.8955 546.2256,690.9473 
									"/>
			</g>
			<g>
				<polygon fill="#FFFFFF" points="590.2329,690.9473 565.7876,690.9473 565.7876,669.8955 590.2329,669.8955 590.2329,690.9473 
									"/>
			</g>
			<g>
				<polygon fill="#FFFFFF" points="634.2393,690.9473 609.7896,690.9473 609.7896,669.8955 634.2393,669.8955 634.2393,690.9473 
									"/>
			</g>
		</g>
		<g>
			<g>
				<polygon fill="#FFFFFF" points="690.9473,414.21 669.8945,414.21 669.8945,389.7549 690.9473,389.7549 690.9473,414.21 				"/>
			</g>
			<g>
				<polygon fill="#FFFFFF" points="690.9473,458.2275 669.8945,458.2275 669.8945,433.7725 690.9473,433.7725 690.9473,458.2275 
									"/>
			</g>
			<g>
				<polygon fill="#FFFFFF" points="690.9473,502.2246 669.8945,502.2246 669.8945,477.7793 690.9473,477.7793 690.9473,502.2246 
									"/>
			</g>
			<g>
				<polygon fill="#FFFFFF" points="690.9473,546.2305 669.8945,546.2305 669.8945,521.7861 690.9473,521.7861 690.9473,546.2305 
									"/>
			</g>
			<g>
				<polygon fill="#FFFFFF" points="690.9473,590.2275 669.8945,590.2275 669.8945,565.7822 690.9473,565.7822 690.9473,590.2275 
									"/>
			</g>
			<g>
				<polygon fill="#FFFFFF" points="690.9473,634.2451 669.8945,634.2451 669.8945,609.79 690.9473,609.79 690.9473,634.2451 				
					"/>
			</g>
		</g>
		<g>
			<g>
				<polygon fill="#FFFFFF" points="354.105,414.21 333.0527,414.21 333.0527,389.7549 354.105,389.7549 354.105,414.21 				"/>
			</g>
			<g>
				<polygon fill="#FFFFFF" points="354.105,458.2275 333.0527,458.2275 333.0527,433.7725 354.105,433.7725 354.105,458.2275 				
					"/>
			</g>
			<g>
				<polygon fill="#FFFFFF" points="354.105,502.2246 333.0527,502.2246 333.0527,477.7793 354.105,477.7793 354.105,502.2246 				
					"/>
			</g>
			<g>
				<polygon fill="#FFFFFF" points="354.105,546.2305 333.0527,546.2305 333.0527,521.7861 354.105,521.7861 354.105,546.2305 				
					"/>
			</g>
			<g>
				<polygon fill="#FFFFFF" points="354.105,590.2275 333.0527,590.2275 333.0527,565.7822 354.105,565.7822 354.105,590.2275 				
					"/>
			</g>
			<g>
				<polygon fill="#FFFFFF" points="354.105,634.2451 333.0527,634.2451 333.0527,609.79 354.105,609.79 354.105,634.2451 				"/>
			</g>
		</g>
	</g>
</g>
</svg>
