<?xml version="1.0" encoding="utf-8"?>
<!-- Generator: Adobe Illustrator 17.1.0, SVG Export Plug-In . SVG Version: 6.00 Build 0)  -->
<!DOCTYPE svg PUBLIC "-//W3C//DTD SVG 1.1//EN" "http://www.w3.org/Graphics/SVG/1.1/DTD/svg11.dtd">
<svg version="1.1" id="mesh-tool" xmlns="http://www.w3.org/2000/svg" xmlns:xlink="http://www.w3.org/1999/xlink" x="0px" y="0px"
	 viewBox="0 0 1024 1024" enable-background="new 0 0 1024 1024" xml:space="preserve">
<g id="mesh-tool-mesh-tool">
	<rect fill="#FFCA70" width="1024" height="1024"/>
	<g id="mesh-tool-mesh-tool_1_">
		<g>
			<path fill="#FFFFFF" d="M701.4736,712.001H322.5288c-5.813,0-10.5259-4.7071-10.5259-10.5254V322.5303
				c0-5.8184,4.7129-10.5254,10.5259-10.5254h378.9448c5.8135,0,10.5264,4.707,10.5264,10.5254v378.9453
				C712,707.2939,707.2871,712.001,701.4736,712.001L701.4736,712.001z M333.0557,690.9492h357.8921V333.0566H333.0557V690.9492
				L333.0557,690.9492z"/>
		</g>
		<g>
			<path fill="#FFFFFF" d="M575.1694,712.001c-3.187,0-6.3325-1.4385-8.4043-4.1729
				c-52.1269-68.8623-31.6196-125.9863-9.9087-186.46c20.3838-56.7637,41.462-115.4707,8.5777-194.8086
				c-2.2256-5.3653,0.3237-11.5235,5.6953-13.7539c5.3603-2.2305,11.5283,0.3291,13.7539,5.6953
				c35.999,86.8525,12.5103,152.2715-8.2134,209.9804c-20.5845,57.3487-38.3633,106.8653,6.8823,166.6407
				c3.5103,4.6367,2.5953,11.2363-2.0405,14.7422C579.6099,711.3027,577.3794,712.001,575.1694,712.001L575.1694,712.001z"/>
		</g>
		<g>
			<path fill="#FFFFFF" d="M448.8545,712.001c-3.187,0-6.3325-1.4385-8.4038-4.1729
				c-52.1275-68.8623-31.6201-125.9863-9.9092-186.46c20.3838-56.7637,41.4619-115.4707,8.5776-194.8086
				c-2.2255-5.3653,0.3238-11.5235,5.6954-13.7539c5.3603-2.2305,11.5283,0.3291,13.7539,5.6953
				c35.999,86.8525,12.5102,152.2715-8.2134,209.9804c-20.5845,57.3487-38.3633,106.8653,6.8823,166.6407
				c3.5103,4.6367,2.5952,11.2363-2.0405,14.7422C453.2949,711.3027,451.0645,712.001,448.8545,712.001L448.8545,712.001z"/>
		</g>
		<g>
			<path fill="#FFFFFF" d="M385.2236,478.0605c-22.7998,0-45.6508-5.583-68.4306-20.3847
				c-4.8775-3.1758-6.2603-9.6934-3.0889-14.5664c3.166-4.8828,9.6782-6.2705,14.561-3.0938
				c49.3365,32.083,98.3443,13.2705,155.1128-8.5215c66.6524-25.5752,142.1968-54.5742,224.5308,9.0245
				c4.6001,3.5468,5.4482,10.1562,1.8965,14.7617c-3.5567,4.6054-10.1665,5.4482-14.7661,1.8916
				c-72.9746-56.3418-139.648-30.7764-204.1158-6.0244C456.2246,464.46,420.7964,478.0488,385.2236,478.0605L385.2236,478.0605z"/>
		</g>
		<g>
			<path fill="#FFFFFF" d="M385.2236,604.375c-22.7998,0-45.6508-5.582-68.4306-20.3848
				c-4.8775-3.1767-6.2603-9.6933-3.0889-14.5663c3.166-4.8712,9.6782-6.2597,14.561-3.0938
				c49.3365,32.083,98.3443,13.2715,155.1128-8.5215c66.6524-25.5859,142.1968-54.5742,224.5308,9.0254
				c4.6001,3.5469,5.4482,10.1562,1.8965,14.7607c-3.5567,4.6064-10.1665,5.4385-14.7661,1.8926
				c-72.9746-56.3428-139.648-30.7773-204.1158-6.0244C456.2246,590.7754,420.7964,604.3643,385.2236,604.375L385.2236,604.375z"/>
		</g>
	</g>
</g>
</svg>
