<?xml version="1.0" encoding="utf-8"?>
<!-- Generator: Adobe Illustrator 17.1.0, SVG Export Plug-In . SVG Version: 6.00 Build 0)  -->
<!DOCTYPE svg PUBLIC "-//W3C//DTD SVG 1.1//EN" "http://www.w3.org/Graphics/SVG/1.1/DTD/svg11.dtd">
<svg version="1.1" id="logo-design" xmlns="http://www.w3.org/2000/svg" xmlns:xlink="http://www.w3.org/1999/xlink" x="0px"
	 y="0px" viewBox="0 0 1024 1024" enable-background="new 0 0 1024 1024" xml:space="preserve">
<g id="logo-design-logo-design">
	<rect fill="#ED7161" width="1024" height="1024"/>
	<g id="logo-design-logo-design_1_">
		<g>
			<path fill="#FFFFFF" d="M438.3159,712C368.666,712,312,655.3389,312,585.6846c0-69.6553,56.666-126.3164,126.3159-126.3164
				c69.649,0,126.3154,56.6611,126.3154,126.3164C564.6313,655.3389,507.9648,712,438.3159,712L438.3159,712z M438.3159,480.4209
				c-58.0439,0-105.2632,47.2246-105.2632,105.2637c0,58.0381,47.2193,105.2628,105.2632,105.2628
				c58.0435,0,105.2627-47.2246,105.2627-105.2628C543.5786,527.6455,496.3594,480.4209,438.3159,480.4209L438.3159,480.4209z"/>
		</g>
		<g>
			<path fill="#FFFFFF" d="M585.6841,712c-69.6494,0-126.3154-56.6611-126.3154-126.3154
				c0-69.6553,56.666-126.3164,126.3154-126.3164S712,516.0293,712,585.6846C712,655.3389,655.3335,712,585.6841,712L585.6841,712z
				 M585.6841,480.4209c-58.044,0-105.2632,47.2246-105.2632,105.2637c0,58.0381,47.2192,105.2628,105.2632,105.2628
				c58.0434,0,105.2632-47.2246,105.2632-105.2628C690.9473,527.6455,643.7275,480.4209,585.6841,480.4209L585.6841,480.4209z"/>
		</g>
		<g>
			<path fill="#FFFFFF" d="M512,564.6318c-69.6499,0-126.3159-56.6611-126.3159-126.3164C385.6841,368.6611,442.3501,312,512,312
				c69.6494,0,126.3159,56.6611,126.3159,126.3154C638.3159,507.9707,581.6494,564.6318,512,564.6318L512,564.6318z M512,333.0527
				c-58.0439,0-105.2637,47.2246-105.2637,105.2627c0,58.0391,47.2198,105.2637,105.2637,105.2637
				c58.0435,0,105.2632-47.2246,105.2632-105.2637C617.2632,380.2773,570.0435,333.0527,512,333.0527L512,333.0527z"/>
		</g>
	</g>
</g>
</svg>
