<?xml version="1.0" encoding="utf-8"?>
<!-- Generator: Adobe Illustrator 17.1.0, SVG Export Plug-In . SVG Version: 6.00 Build 0)  -->
<!DOCTYPE svg PUBLIC "-//W3C//DTD SVG 1.1//EN" "http://www.w3.org/Graphics/SVG/1.1/DTD/svg11.dtd">
<svg version="1.1" id="cube" xmlns="http://www.w3.org/2000/svg" xmlns:xlink="http://www.w3.org/1999/xlink" x="0px" y="0px"
	 viewBox="0 0 1024 1024" enable-background="new 0 0 1024 1024" xml:space="preserve">
<g id="cube-cube">
	<rect fill="#ED7161" width="1024" height="1024"/>
	<g id="cube-cube_1_">
		<g>
			<path fill="#FFFFFF" d="M512.0005,712c-1.6089,0-3.2231-0.3691-4.7085-1.1094L337.417,625.958
				c-3.5669-1.7891-5.8189-5.4287-5.8189-9.417V407.4492c0-5.8193,4.7134-10.5273,10.5269-10.5273s10.5269,4.708,10.5269,10.5273
				v202.585l148.8217,74.4053V492.4023c0-5.8193,4.7134-10.5273,10.5269-10.5273c5.813,0,10.5264,4.708,10.5264,10.5273v209.0713
				c0,3.6494-1.8912,7.0323-4.9908,8.9541C515.8447,711.4756,513.9224,712,512.0005,712L512.0005,712z"/>
		</g>
		<g>
			<path fill="#FFFFFF" d="M512.0107,712c-3.8652,0-7.5815-2.127-9.4268-5.8174c-2.6006-5.2021-0.4937-11.5244,4.708-14.125
				l164.0571-82.0234v-202.585c0-5.8193,4.7134-10.5273,10.5259-10.5273c5.8135,0,10.5269,4.708,10.5269,10.5273V616.541
				c0,3.9883-2.252,7.6279-5.8189,9.417l-169.8745,84.9326C515.1973,711.6406,513.5889,712,512.0107,712L512.0107,712z"/>
		</g>
		<g>
			<path fill="#FFFFFF" d="M512.0005,502.9277c-1.6143,0-3.228-0.3691-4.7085-1.1103l-169.875-84.9531
				c-3.542-1.7676-5.7876-5.376-5.8189-9.3331c-0.0312-3.958,2.1597-7.5976,5.67-9.4267l163.3374-84.9326
				c2.9448-1.5108,6.4345-1.5625,9.4209-0.1436L686.4395,397.96c3.6181,1.748,5.9311,5.3974,5.9624,9.4062
				c0.0312,4.0195-2.2256,7.6992-5.8189,9.4981l-169.8745,84.9531C515.228,502.5586,513.6143,502.9277,512.0005,502.9277
				L512.0005,502.9277z M365.2959,407.2627l146.7046,73.3682L657.979,407.623l-152.3369-73.3359L365.2959,407.2627
				L365.2959,407.2627z"/>
		</g>
	</g>
</g>
</svg>
