<?xml version="1.0" encoding="utf-8"?>
<!-- Generator: Adobe Illustrator 17.1.0, SVG Export Plug-In . SVG Version: 6.00 Build 0)  -->
<!DOCTYPE svg PUBLIC "-//W3C//DTD SVG 1.1//EN" "http://www.w3.org/Graphics/SVG/1.1/DTD/svg11.dtd">
<svg version="1.1" id="color-palette" xmlns="http://www.w3.org/2000/svg" xmlns:xlink="http://www.w3.org/1999/xlink" x="0px"
	 y="0px" viewBox="0 0 1024 1024" enable-background="new 0 0 1024 1024" xml:space="preserve">
<g id="color-palette-color-palette">
	<rect fill="#80C2B8" width="1024" height="1024"/>
	<g id="color-palette-color-palette_1_">
		<g>
			<path fill="#FFFFFF" d="M430.3618,712c-15.6616,0-30.3813-6.0957-41.4531-17.167l-31.7437-31.7432
				c-22.8613-22.8623-22.8613-60.0537,0-82.916l194.979-194.9951c11.0718-11.0713,25.7867-17.167,41.438-17.167
				c15.6656,0,30.3965,6.1065,41.4785,17.1875l31.7437,31.7334c11.0757,11.0713,17.1772,25.8018,17.1772,41.458
				c0.0049,15.6563-6.0957,30.3867-17.1772,41.4571L471.8247,694.833C460.748,705.9043,446.022,712,430.3618,712L430.3618,712z
				 M593.582,389.0645c-10.0278,0-19.4599,3.9062-26.5522,10.999L372.0503,595.0586c-14.6484,14.6484-14.6484,38.4971,0,53.1455
				l31.7436,31.7441c14.1958,14.1856,38.9498,14.1856,53.1456,0l194.979-194.9843c7.1035-7.1035,11.0097-16.5401,11.0097-26.5733
				s-3.9111-19.4697-11.0097-26.5732l-31.7437-31.7324C613.0664,392.9814,603.625,389.0645,593.582,389.0645L593.582,389.0645z"/>
		</g>
		<g>
			<path fill="#FFFFFF" d="M357.5454,603.1377c-1.9326,0-3.8911-0.5332-5.644-1.6436c-4.9029-3.125-6.3472-9.6328-3.2276-14.5351
				l142.7847-224.293c8.4858-13.1582,21.5977-22.2041,36.9399-25.5137c15.3682-3.2793,31.024-0.4521,44.1353,7.9873l41.4683,26.0694
				c4.9243,3.0937,6.4047,9.5898,3.311,14.5146c-3.084,4.9239-9.5762,6.4043-14.5151,3.3106l-41.5718-26.1309
				c-8.4907-5.4795-18.5386-7.2998-28.3916-5.1611c-9.8428,2.1182-18.2417,7.9053-23.6484,16.2832L366.4375,598.2666
				C364.4277,601.4219,361.0249,603.1377,357.5454,603.1377L357.5454,603.1377z"/>
		</g>
		<g>
			<path fill="#FFFFFF" d="M352.8584,613.5c-1.0855,0-2.1895-0.1641-3.2749-0.5234c-5.5254-1.8096-8.5371-7.751-6.728-13.2823
				l81.3632-248.4179c10.876-30.6846,44.419-46.6592,74.8873-35.9483l56.3637,22.4717c5.397,2.1484,8.0283,8.2754,5.875,13.6719
				c-2.1484,5.3974-8.2597,8.0488-13.6767,5.8799l-55.9673-22.3174c-19.0947-6.7119-40.6309,3.5263-47.5601,23.0371
				l-81.2807,248.1816C361.4102,610.6836,357.2881,613.5,352.8584,613.5L352.8584,613.5z"/>
		</g>
		<g>
			<path fill="#FFFFFF" d="M423.186,660.2217c-8.3261,0-16.1548-3.249-22.0493-9.1279c-12.1611-12.2129-12.1509-31.9913,0-44.1309
				c11.7695-11.7803,32.314-11.792,44.1045,0.0098c12.1397,12.1406,12.146,31.9189,0.0151,44.0996
				C439.3403,656.9727,431.5132,660.2217,423.186,660.2217L423.186,660.2217z M423.1807,618.877
				c-2.6983,0-5.2422,1.0576-7.1597,2.9804c-3.9522,3.9473-3.9473,10.3828,0.0102,14.3506
				c3.8038,3.8037,10.4854,3.8242,14.3306-0.0205c3.9321-3.9473,3.937-10.3828-0.0054-14.3301
				C428.4341,619.9346,425.8843,618.877,423.1807,618.877L423.1807,618.877z"/>
		</g>
	</g>
</g>
</svg>
