<?xml version="1.0" encoding="utf-8"?>
<!-- Generator: Adobe Illustrator 17.1.0, SVG Export Plug-In . SVG Version: 6.00 Build 0)  -->
<!DOCTYPE svg PUBLIC "-//W3C//DTD SVG 1.1//EN" "http://www.w3.org/Graphics/SVG/1.1/DTD/svg11.dtd">
<svg version="1.1" id="round-transform-tool" xmlns="http://www.w3.org/2000/svg" xmlns:xlink="http://www.w3.org/1999/xlink"
	 x="0px" y="0px" viewBox="0 0 1024 1024" enable-background="new 0 0 1024 1024" xml:space="preserve">
<g id="round-transform-tool-round-transform-tool">
	<rect fill="#656872" width="1024" height="1024"/>
	<g id="round-transform-tool-round-transform-tool_1_">
		<g>
			<path fill="#FFFFFF" d="M548.9443,385.9004h-73.8891V312h73.8891V385.9004L548.9443,385.9004z M496.1079,364.8477h31.7842
				v-31.795h-31.7842V364.8477L496.1079,364.8477z"/>
		</g>
		<g>
			<path fill="#FFFFFF" d="M548.9443,712h-73.8891v-73.8896h73.8891V712L548.9443,712z M496.1079,690.9473h31.7842v-31.7842
				h-31.7842V690.9473L496.1079,690.9473z"/>
		</g>
		<g>
			<path fill="#FFFFFF" d="M712,548.9443h-73.8901v-73.8886H712V548.9443L712,548.9443z M659.1626,527.8926h31.7847v-31.7852
				h-31.7847V527.8926L659.1626,527.8926z"/>
		</g>
		<g>
			<path fill="#FFFFFF" d="M385.8945,548.9443H312v-73.8886h73.8945V548.9443L385.8945,548.9443z M333.0527,527.8926h31.7896
				v-31.7852h-31.7896V527.8926L333.0527,527.8926z"/>
		</g>
		<g>
			<path fill="#FFFFFF" d="M662.3701,486.5576c-10.7319-63.9902-60.9429-114.1953-124.9433-124.9277l3.4843-20.7647
				c72.8463,12.2227,130.001,69.3662,142.2237,142.2178L662.3701,486.5576L662.3701,486.5576z"/>
		</g>
		<g>
			<path fill="#FFFFFF" d="M540.9111,683.1348l-3.4843-20.7647c64.0004-10.7324,114.2114-60.9482,124.9433-124.9385l20.7646,3.4747
				C670.9175,613.7578,613.7573,670.9121,540.9111,683.1348L540.9111,683.1348z"/>
		</g>
		<g>
			<path fill="#FFFFFF" d="M483.0835,683.1348c-72.8311-12.2227-129.9858-69.377-142.2236-142.2178l20.7646-3.4961
				c10.7476,64.001,60.958,114.2168,124.9434,124.9492L483.0835,683.1348L483.0835,683.1348z"/>
		</g>
		<g>
			<path fill="#FFFFFF" d="M361.6245,486.5684l-20.7646-3.4952c12.2378-72.8418,69.3925-129.9853,142.2236-142.208l3.4844,20.7647
				C422.5825,372.3623,372.3721,422.5674,361.6245,486.5684L361.6245,486.5684z"/>
		</g>
	</g>
</g>
</svg>
