<?xml version="1.0" encoding="utf-8"?>
<!-- Generator: Adobe Illustrator 17.1.0, SVG Export Plug-In . SVG Version: 6.00 Build 0)  -->
<!DOCTYPE svg PUBLIC "-//W3C//DTD SVG 1.1//EN" "http://www.w3.org/Graphics/SVG/1.1/DTD/svg11.dtd">
<svg version="1.1" id="polaroid-camera" xmlns="http://www.w3.org/2000/svg" xmlns:xlink="http://www.w3.org/1999/xlink" x="0px"
	 y="0px" viewBox="0 0 1024 1024" enable-background="new 0 0 1024 1024" xml:space="preserve">
<g id="polaroid-camera-polaroid-camera">
	<rect fill="#80C2B8" width="1024" height="1024"/>
	<g id="polaroid-camera-polaroid-camera_1_">
		<g>
			<path fill="#FFFFFF" d="M675.1577,543.5791H348.8423c-5.8135,0-10.5269-4.708-10.5269-10.5273V392.7051
				c0-44.5,35.5415-80.7051,79.2251-80.7051H606.459c43.6836,0,79.2251,36.2051,79.2251,80.7051v140.3467
				C685.6841,538.8711,680.9707,543.5791,675.1577,543.5791L675.1577,543.5791z M359.3682,522.5264h305.2631V392.7051
				c0-32.8946-26.0947-59.6524-58.1723-59.6524H417.5405c-32.0776,0-58.1723,26.7578-58.1723,59.6524V522.5264L359.3682,522.5264z"
				/>
		</g>
		<g>
			<path fill="#FFFFFF" d="M701.4736,651.7197h-72.3584V630.668h61.8321v-55.9424l-25.2364-51.3867l18.8941-9.2725l26.3154,53.5772
				c0.709,1.4384,1.0796,3.0214,1.0796,4.6357v68.915C712,647.0117,707.2866,651.7197,701.4736,651.7197L701.4736,651.7197z"/>
		</g>
		<g>
			<path fill="#FFFFFF" d="M394.8638,651.7197h-72.3379c-5.8125,0-10.5259-4.708-10.5259-10.5255v-68.915
				c0-1.6143,0.3701-3.1973,1.0791-4.6357l26.3159-53.5772l18.8941,9.2725l-25.2364,51.3867v55.9424h61.8111V651.7197
				L394.8638,651.7197z"/>
		</g>
		<g>
			<polygon fill="#FFFFFF" points="701.4736,585.6846 322.5259,585.6846 322.5259,564.6318 701.4736,564.6318 701.4736,585.6846 			
				"/>
		</g>
		<g>
			<path fill="#FFFFFF" d="M648.8418,712h-273.689c-3.4282,0-6.646-1.6758-8.6142-4.4814
				c-1.9737-2.8077-2.4522-6.3936-1.2852-9.6221l34.1997-94.7373l19.7993,7.1553l-29.1069,80.6328H633.854l-29.1011-80.6328
				l19.7983-7.1553l34.1899,94.7373c1.167,3.2285,0.6836,6.8144-1.2851,9.6221C655.4873,710.3242,652.27,712,648.8418,712
				L648.8418,712z"/>
		</g>
		<g>
			<path fill="#FFFFFF" d="M512,501.4736c-40.6304,0-73.6841-33.0586-73.6841-73.6845c0-40.625,33.0537-73.6846,73.6841-73.6846
				c40.6299,0,73.6841,33.0596,73.6841,73.6846C585.6841,468.415,552.6299,501.4736,512,501.4736L512,501.4736z M512,375.1582
				c-29.0195,0-52.6313,23.6123-52.6313,52.6309c0,29.0205,23.6118,52.6318,52.6313,52.6318
				c29.019,0,52.6313-23.6113,52.6313-52.6318C564.6313,398.7705,541.019,375.1582,512,375.1582L512,375.1582z"/>
		</g>
		<g>
			<path fill="#FFFFFF" d="M512,459.3682c-17.4136,0-31.5791-14.1651-31.5791-31.5791c0-17.4131,14.1655-31.5791,31.5791-31.5791
				c17.4136,0,31.5786,14.166,31.5786,31.5791C543.5786,445.2031,529.4136,459.3682,512,459.3682L512,459.3682z M512,417.2637
				c-5.8027,0-10.5264,4.7177-10.5264,10.5254c0,5.8086,4.7237,10.5263,10.5264,10.5263s10.5259-4.7177,10.5259-10.5263
				C522.5259,421.9814,517.8027,417.2637,512,417.2637L512,417.2637z"/>
		</g>
		<g>
			<polygon fill="#FFFFFF" points="648.8418,617.2627 375.1577,617.2627 375.1577,596.2109 648.8418,596.2109 648.8418,617.2627 			
				"/>
		</g>
	</g>
</g>
</svg>
